<svg xmlns="http://www.w3.org/2000/svg" xmlns:xlink="http://www.w3.org/1999/xlink" width="113.304" height="41.819" viewBox="0 0 113.304 41.819"><defs><style>.a{fill:none;}.b{clip-path:url(#a);}.c{fill:#beb7af;}.d{fill:#dc5528;}.e{fill:#982173;}</style><clipPath id="a"><rect class="a" width="113.304" height="41.819"/></clipPath></defs><g class="b"><path class="c" d="M1155.621,444.217a6.954,6.954,0,0,1-9.582-.075l-5.272,4.123a13.606,13.606,0,0,0,19.58.64Z" transform="translate(-1086.52 -423.022)"/><path class="d" d="M1074.477,69.548a6.971,6.971,0,1,1,12.653-4.038c0,.12,0,.24-.008.358l6.6,1.041a13.632,13.632,0,1,0-24.488,6.741Z" transform="translate(-1015.81 -49.412)"/><path class="e" d="M1472.482,373.1a6.945,6.945,0,0,1-1.159,2.481l4.75,4.712a13.588,13.588,0,0,0,3-6.152Z" transform="translate(-1401.357 -355.354)"/><path class="d" d="M1697.443,51.878a13.632,13.632,0,1,0,13.63,13.631,13.647,13.647,0,0,0-13.63-13.631m0,20.606a6.972,6.972,0,1,1,6.97-6.974,6.98,6.98,0,0,1-6.97,6.974" transform="translate(-1603.741 -49.411)"/><path class="d" d="M475.2,29.395a13.624,13.624,0,0,0-1.145-13.6.535.535,0,0,1,.053-.679,7.083,7.083,0,0,1,1.374-1.1.535.535,0,0,0,.215-.668l-2.217-5.169a.544.544,0,0,0-.312-.291.518.518,0,0,0-.426.031,13.843,13.843,0,0,0-3.842,3.019.542.542,0,0,1-.61.138,13.631,13.631,0,1,0-5.42,26.138,13.467,13.467,0,0,0,6.171-1.48.548.548,0,0,1,.541.035.531.531,0,0,1,.235.485,7.005,7.005,0,0,1-6.947,6.391,6.9,6.9,0,0,1-4.178-1.387.53.53,0,0,0-.7.051l-3.976,3.972a.55.55,0,0,0-.158.4.534.534,0,0,0,.187.386A13.633,13.633,0,0,0,475.2,29.853a.532.532,0,0,1,0-.458m-12.329,1.158a6.972,6.972,0,1,1,6.971-6.974,6.98,6.98,0,0,1-6.971,6.974" transform="translate(-427.879 -7.48)"/><path class="d" d="M20.838,28.8,18.646,23.4a.531.531,0,0,0-.5-.333h-.066A6.981,6.981,0,0,1,11.109,16.1V11.644a.534.534,0,0,1,.534-.533h8.111a.533.533,0,0,0,.534-.534V5.519a.534.534,0,0,0-.534-.534H11.643a.533.533,0,0,1-.534-.535V.531A.533.533,0,0,0,10.575,0H4.985a.533.533,0,0,0-.533.532V4.45a.534.534,0,0,1-.533.535H.531A.533.533,0,0,0,0,5.519v5.058a.533.533,0,0,0,.532.534H3.918a.534.534,0,0,1,.533.533V16.1A13.633,13.633,0,0,0,20.44,29.525a.53.53,0,0,0,.4-.726" transform="translate(0.001 0.001)"/><path class="d" d="M2214.924,51.878h3.292v.611h-1.292v3.455h-.713V52.49h-1.287Z" transform="translate(-2109.598 -49.411)"/><path class="d" d="M2293.883,51.878h1l1.123,3.183h.01l1.1-3.183h.993v4.066h-.68V52.8h-.012l-1.126,3.14h-.59l-1.125-3.14h-.012v3.14h-.679Z" transform="translate(-2184.802 -49.411)"/><path class="c" d="M1095.142,728.1l1.008-3.268h1.324l1,3.268,1.13-3.268h1.374l-1.984,5.682h-.942l-1.244-3.95-1.235,3.95h-.942l-1.984-5.682h1.374Z" transform="translate(-1040.688 -690.369)"/><path class="c" d="M1278.414,727.127a3.1,3.1,0,0,1-4.243,0,2.972,2.972,0,0,1,0-4.186,3.095,3.095,0,0,1,4.243,0,2.972,2.972,0,0,1,0,4.186m-.431-2.089a1.86,1.86,0,0,0-.487-1.3,1.608,1.608,0,0,0-2.4,0,1.963,1.963,0,0,0,0,2.589,1.617,1.617,0,0,0,2.4,0,1.845,1.845,0,0,0,.487-1.292" transform="translate(-1212.76 -687.762)"/><path class="c" d="M1425.938,726.723a1.673,1.673,0,0,1-1.081,1.764l1.439,2.032h-1.56l-1.26-1.812h-.878v1.812h-1.268v-5.681h2.154a3.089,3.089,0,0,1,1.89.447,1.724,1.724,0,0,1,.565,1.439m-1.527.675a.86.86,0,0,0,.235-.67.718.718,0,0,0-.244-.63,1.56,1.56,0,0,0-.854-.171h-.951v1.682h.927a1.366,1.366,0,0,0,.887-.211" transform="translate(-1353.742 -690.369)"/><path class="c" d="M1545.6,730.518v-5.682h1.268v4.552h2.422v1.13Z" transform="translate(-1472.101 -690.368)"/><path class="c" d="M1647.007,725.581a2.665,2.665,0,0,1,.813,2.068,2.791,2.791,0,0,1-.793,2.1,3.342,3.342,0,0,1-2.418.772h-1.943v-5.681h2.008a3.339,3.339,0,0,1,2.333.744m-.931,3.377a1.666,1.666,0,0,0,.468-1.276,1.706,1.706,0,0,0-.468-1.288,2,2,0,0,0-1.434-.451h-.707V729.4h.8a1.88,1.88,0,0,0,1.336-.439" transform="translate(-1564.553 -690.369)"/><path class="c" d="M1759.529,728.1l1.008-3.268h1.325l1,3.268,1.13-3.268h1.374l-1.983,5.682h-.943l-1.244-3.95-1.236,3.95h-.942l-1.983-5.682h1.373Z" transform="translate(-1673.482 -690.369)"/><rect class="c" width="1.269" height="5.681" transform="translate(92.557 34.468)"/><path class="c" d="M2006.8,725.581a2.665,2.665,0,0,1,.813,2.068,2.79,2.79,0,0,1-.793,2.1,3.342,3.342,0,0,1-2.418.772h-1.943v-5.681h2.008a3.339,3.339,0,0,1,2.333.744m-.931,3.377a1.666,1.666,0,0,0,.468-1.276,1.706,1.706,0,0,0-.468-1.288,2,2,0,0,0-1.434-.451h-.707V729.4h.8a1.879,1.879,0,0,0,1.336-.439" transform="translate(-1907.233 -690.369)"/><path class="c" d="M2138,724.837v1.13h-2.828v1.17h2.543v1.081h-2.543V729.4h2.918v1.122H2133.9v-5.682Z" transform="translate(-2032.43 -690.369)"/></g></svg>